<svg fill="currentColor" height="24" viewBox="0 0 24 24" width="24" xmlns="http://www.w3.org/2000/svg">
    <path d="m6.91606 2.25001c-.03215-.04821-.06965-.09107-.1125-.12857-.04822-.0375-.09643-.06428-.15536-.08571s-.11786-.03215-.18214-.03215c-.11786 0-.21429.02143-.29465.06965-.08035.04285-.14464.10714-.19821.18214-.04822.075-.08572.16071-.10714.25714-.02143.09643-.03215.19286-.03215.3 0 .09643.01072.19286.03215.28929.02142.09107.05892.17678.10714.25178.04821.075.11786.13393.19821.17679.08036.04286.17679.06964.29465.06964.15535 0 .27857-.04821.36964-.14464s.14464-.225.16071-.38036h.49822c-.01072.14465-.04822.27857-.10179.39643s-.12857.21964-.21428.3c-.09108.08036-.19286.14464-.31608.1875-.11785.04286-.25178.06429-.39642.06429-.17679 0-.34286-.03215-.48215-.09108-.14464-.06428-.2625-.15-.36428-.25714-.09643-.10714-.17143-.23571-.225-.38571-.05357-.14465-.08036-.30536-.08036-.47679 0-.17678.02679-.3375.08036-.4875s.12857-.27857.225-.39107.21964-.19821.36428-.2625c.14465-.06428.30536-.09643.48215-.09643.12857 0 .25178.01607.36428.05357s.21964.09108.30536.16072c.09107.06964.16607.16071.225.2625.05893.10714.09643.225.1125.35893h-.49822c-.01071-.05893-.02678-.1125-.05892-.16072z"/>
    <path d="m8.22321 3.55715c.06964.06964.17143.10179.3.10179.09643 0 .17679-.02143.24107-.06965.06965-.04821.10714-.09643.12322-.15h.40714c-.06429.20357-.16607.34822-.3.43393-.13393.08572-.3.12857-.49286.12857-.13393 0-.25178-.02143-.35893-.06428-.10714-.04286-.19821-.10179-.27321-.18215-.075-.08035-.13393-.17142-.17143-.28392-.04286-.10715-.05893-.23036-.05893-.35893s.02143-.24643.06429-.35357c.04285-.10715.10178-.20358.17678-.28393.075-.08036.16607-.14465.27322-.1875.10714-.04822.225-.06965.35357-.06965.14464 0 .26786.02679.375.08572.10714.05357.19286.12857.2625.225s.11786.20357.15.32143c.03214.11785.04286.24643.03214.375h-1.22143c.01072.15535.04822.2625.11786.33214zm.53036-.88929c-.05357-.05892-.13929-.09107-.25179-.09107-.075 0-.13393.01072-.1875.0375-.04821.02679-.08571.05893-.11786.09107-.02678.0375-.04821.075-.06428.11786-.01072.04286-.02143.08036-.02143.1125h.75536c-.02143-.11786-.05893-.20893-.1125-.26786z"/>
    <path d="m9.9857 2.27143v.31608h.00536c.02144-.05358.05354-.10179.08574-.14465.0375-.04285.0803-.08035.1285-.1125.0483-.03214.1018-.05357.1554-.075.0536-.01607.1125-.02678.1714-.02678.0322 0 .0643.00535.1018.01607v.43393c-.0214-.00536-.0482-.01072-.0803-.01072-.0322-.00535-.059-.00535-.0858-.00535-.0857 0-.1553.01607-.2142.04285-.059.02679-.1072.06965-.1447.11786s-.0643.10714-.075.17143c-.0161.06428-.0214.13393-.0214.21428v.75536h-.46608v-1.69286z"/>
    <path d="m11.8768 2.27144v.31072h-.3429v.84107c0 .08036.0107.12857.0375.15536.0268.02678.0804.0375.1554.0375.0268 0 .0536 0 .075-.00536.0214 0 .0482-.00536.0696-.01072v.35893c-.0375.00536-.0857.01072-.1285.01072-.0483 0-.0965.00535-.1393.00535-.0697 0-.1393-.00535-.2036-.01607-.0643-.01071-.1232-.02678-.1714-.05893-.0482-.02678-.0857-.06964-.1179-.12321-.0268-.05357-.0428-.12321-.0428-.20357v-1.00179h-.284v-.31071h.284v-.50893h.466v.50893h.3429z"/>
    <path d="m12.1125 1.62323h.4661v.38571h-.4661zm.4661 2.34107h-.4661v-1.69286h.4661z"/>
    <path d="m12.7714 2.58214v-.31071h.2786v-.12857c0-.15.0482-.27322.1393-.36965.0964-.09643.2357-.14464.4286-.14464.0428 0 .0803 0 .1232.00536.0428.00535.0803.00535.1232.01071v.34822c-.0536-.00536-.1125-.01072-.1714-.01072-.0643 0-.1072.01607-.134.04286-.0268.02678-.0428.08036-.0428.15v.10178h.3214v.31072h-.3214v1.37678h-.4661v-1.38214z"/>
    <path d="m14.1161 1.62323h.466v.38571h-.466zm.466 2.34107h-.466v-1.69286h.466z"/>
    <path d="m15.3161 3.55715c.0696.06964.1714.10179.3.10179.0964 0 .1768-.02143.241-.06965.0697-.04821.1072-.09643.1233-.15h.4071c-.0643.20357-.1661.34822-.3.43393-.1339.08572-.3.12857-.4929.12857-.1339 0-.2517-.02143-.3589-.06428-.1071-.04286-.1982-.10179-.2732-.18215-.075-.08035-.1339-.17142-.1714-.28392-.0429-.10715-.059-.23036-.059-.35893s.0215-.24643.0643-.35357c.0429-.10715.1018-.20358.1768-.28393.075-.08036.1661-.14465.2732-.1875.1072-.04822.225-.06965.3536-.06965.1446 0 .2679.02679.375.08572.1071.05357.1929.12857.2625.225s.1179.20357.15.32143c.0321.11785.0429.24643.0321.375h-1.2214c.0107.15535.0482.2625.1179.33214zm.525-.88929c-.0536-.05892-.1393-.09107-.2518-.09107-.075 0-.1339.01072-.1875.0375-.0482.02679-.0911.05893-.1179.09107-.0321.0375-.0482.075-.0643.11786-.0107.04286-.0214.08036-.0214.1125h.7554c-.0161-.11786-.059-.20893-.1125-.26786z"/>
    <path d="m17.8339 3.74466c-.0536.09107-.1286.15536-.2143.19821-.091.04286-.1875.05893-.3.05893-.1285 0-.2357-.02678-.3321-.075-.0964-.04821-.1768-.11786-.2357-.19821-.0643-.08572-.1072-.18215-.1393-.28929-.0322-.10714-.0482-.225-.0482-.34286 0-.1125.016-.225.0482-.32678.0321-.10714.0803-.19822.1393-.27857.0643-.08036.1393-.14465.2357-.19286s.2036-.075.3268-.075c.1018 0 .1982.02143.2839.06429.0911.04285.1607.10714.2143.1875h.0053v-.85179h.4661v2.34107h-.4446v-.21428h-.0054zm-.0214-.83572c-.0107-.06428-.0375-.12321-.0697-.17142-.0321-.04822-.075-.09108-.1232-.11786-.0482-.03214-.1125-.04822-.1875-.04822s-.1393.01608-.1928.04822c-.0536.03214-.0965.06964-.1286.12321-.0321.04822-.0536.10715-.0696.17143-.0161.06429-.0215.13393-.0215.20357 0 .06429.0054.12857.0215.19822.016.06428.0428.12321.075.17678.0321.05357.075.09107.1285.12322.0536.03214.1125.04821.1875.04821s.1393-.01607.1929-.04821c.0536-.03215.0911-.06965.1232-.12322s.0536-.10714.0643-.17678c.0107-.06429.0214-.13393.0214-.20357 0-.06965-.0053-.13929-.0214-.20358z"/>
    <path d="m9.01071 7.76788h2.71069c.659 0 1.5268 0 1.9768.27322.4929.29464.8786.825.8786 1.55893 0 .79287-.4179 1.39287-1.1089 1.67677v.0214c.9214.1875 1.425.8786 1.425 1.8 0 1.0983-.7875 2.1483-2.2715 2.1483h-3.61069zm.99639 3.21432h1.9929c1.1304 0 1.5911-.4072 1.5911-1.19467 0-1.03929-.734-1.18393-1.5911-1.18393h-1.9929zm0 3.4232h2.4911c.8572 0 1.4036-.525 1.4036-1.3393 0-.975-.7875-1.2482-1.6232-1.2482h-2.2715z"/>
    <path d="m17.4375 11.5072c0 3.1393-2.5446 5.6839-5.6893 5.6839-3.13927 0-5.68392-2.5446-5.68392-5.6839 0-3.13932 2.54465-5.68396 5.68392-5.68396 3.1447 0 5.6893 2.54464 5.6893 5.68396zm-5.6839-6.55182c-3.6161 0-6.55182 2.93036-6.55182 6.55182 0 3.616 2.93036 6.5518 6.55182 6.5518 3.616 0 6.5518-2.9304 6.5518-6.5518 0-3.62146-2.9358-6.55182-6.5518-6.55182z"/>
    <path d="m6.41249 19.4679c-.02143-.1661-.18214-.2893-.36429-.2893-.32678 0-.45.2785-.45.5678 0 .2732.12322.5518.45.5518.225 0 .34822-.1553.375-.3696h.35357c-.0375.4125-.32142.675-.72857.675-.51428 0-.81428-.3804-.81428-.8625 0-.4929.3-.8732.81428-.8732.36429 0 .66965.2142.7125.5946z"/>
    <path d="m7.5375 19.3393c.38036 0 .62143.2518.62143.6321 0 .3804-.24107.6322-.62143.6322-.375 0-.62142-.2518-.62142-.6322.00535-.3857.24642-.6321.62142-.6321zm0 1.0125c.225 0 .29465-.1929.29465-.3804 0-.1928-.06965-.3857-.29465-.3857s-.28928.1929-.28928.3857c0 .1875.06964.3804.28928.3804z"/>
    <path d="m8.35179 19.3714h.31072v.225h.00535c.05893-.15.225-.2571.38036-.2571.02143 0 .04822.0054.06964.0107v.3054c-.03214-.0054-.08035-.0107-.11785-.0107-.24107 0-.32679.1714-.32679.3857v.541h-.32678v-1.2z"/>
    <path d="m9.29999 19.3714h.31071v.1554h.00536c.08036-.1286.20893-.1875.35893-.1875.37501 0 .54641.3054.54641.6429 0 .3214-.1768.6214-.52498.6214-.14465 0-.27858-.0643-.35893-.1822h-.01072v.5733h-.32678zm.88931.6c0-.1928-.075-.3857-.28931-.3857-.21429 0-.28393.1929-.28393.3857 0 .1929.075.3804.28928.3804.21426 0 .28396-.1821.28396-.3804z"/>
    <path d="m11.2982 19.3393c.3804 0 .6214.2518.6214.6321 0 .3804-.2464.6322-.6214.6322s-.6214-.2518-.6214-.6322c0-.3857.2464-.6321.6214-.6321zm0 1.0125c.225 0 .2947-.1929.2947-.3804 0-.1928-.0697-.3857-.2947-.3857s-.2893.1929-.2893.3857c0 .1875.0643.3804.2893.3804z"/>
    <path d="m12.1393 19.3714h.3107v.225h.0053c.059-.15.225-.2571.3804-.2571.0214 0 .0536.0054.0696.0107v.3054c-.0321-.0054-.0803-.0107-.1178-.0107-.2411 0-.3268.1714-.3268.3857v.541h-.3268v-1.2z"/>
    <path d="m13.0286 19.7411c.0214-.3107.2946-.4018.5625-.4018.241 0 .525.0536.525.3429v.6214c0 .1071.0107.2196.0428.2678h-.3321c-.0107-.0375-.0214-.075-.0214-.1178-.1018.1071-.2572.15-.4018.15-.225 0-.4072-.1125-.4072-.3589 0-.2733.2036-.3375.4072-.3643.2035-.0322.391-.0215.391-.1554 0-.1393-.0964-.1607-.2142-.1607-.1233 0-.209.0482-.2197.1821zm.7607.2411c-.0536.0482-.1714.0535-.2732.0696-.1018.0214-.1929.0536-.1929.1768s.0964.1553.2036.1553c.2571 0 .2678-.2035.2678-.2732z"/>
    <path d="m14.7911 19.3714h.241v.2197h-.241v.5946c0 .1125.0267.1393.1392.1393.0375 0 .0697 0 .1018-.0107v.2571c-.0535.0108-.1285.0108-.1928.0108-.2036 0-.375-.0483-.375-.284v-.7071h-.1982v-.2197h.1982v-.3589h.3268z"/>
    <path d="m15.525 19.184h-.3268v-.2733h.3268zm-.3268.1875h.3268v1.2h-.3268z"/>
    <path d="m16.3232 19.3393c.3804 0 .6214.2518.6214.6321 0 .3804-.2464.6322-.6214.6322s-.6161-.2518-.6161-.6322c-.0053-.3857.2411-.6321.6161-.6321zm0 1.0125c.225 0 .2947-.1929.2947-.3804 0-.1928-.0643-.3857-.2947-.3857-.225 0-.2893.1929-.2893.3857 0 .1875.0643.3804.2893.3804z"/>
    <path d="m17.1536 19.3714h.3107v.1661h.0053c.0857-.1339.225-.1982.3643-.1982.3482 0 .4393.1982.4393.4929v.7392h-.3268v-.675c0-.1982-.0589-.2946-.2089-.2946-.1768 0-.2572.1018-.2572.3429v.6267h-.3267z"/>
    <path d="m18.2839 21.5893h-13.05532v.8357h13.05532z"/>
    <path d="m18.4714 18.8625h-.075v.209h-.0375v-.209h-.075v-.0321h.1929v.0321zm.3215.209h-.0375v-.2036l-.0804.2036h-.0268l-.0803-.2036v.2036h-.0429v-.2411h.0643l.075.1821.0696-.1821h.0643v.2411z"/>
</svg>
