<svg width="65" height="65" viewBox="0 0 65 65" fill="none" xmlns="http://www.w3.org/2000/svg">
<rect width="65" height="65" fill="white"/>
<path d="M22.2842 21.2927L18.3072 23.3742L17.0787 33.7607C16.9642 34.4684 16.173 34.4788 16.1417 34.4788H15.8086V35.7485H21.8366C21.19 37.3116 20.8371 38.9803 20.7955 40.6712H19.9105V41.8889H42.8876V40.6816H42.0651C41.9818 34.1042 37.5363 29.348 31.4251 29.348H31.0607C30.9462 28.505 30.8317 27.6932 30.738 26.8711L30.3944 24.6439V24.5294L30.2486 23.3742L26.4278 21.2927H22.2842ZM31.3522 30.5657C36.7659 30.5657 40.7221 34.8327 40.7221 40.6816H21.9719C22.2218 34.6245 25.9801 30.5657 31.3834 30.5657H31.3522ZM29.6448 29.5249C28.1396 29.7491 26.7058 30.315 25.4533 31.1791C24.2009 32.0432 23.1631 33.1827 22.4196 34.5101H18.1198C18.1937 34.3403 18.2461 34.162 18.276 33.9793L19.4941 24.2588L22.5549 22.5624H26.001L29.0201 24.2172L29.6448 29.5249Z" fill="#231F20" stroke="#231F20" stroke-width="0.1"/>
<path d="M31.9873 33.3759H30.7588V39.818H31.9873V33.3759Z" fill="#231F20" stroke="#231F20" stroke-width="0.1"/>
<path d="M26.8127 39.8492V39.5682C26.8082 38.5245 26.8708 37.4817 27.0001 36.446C27.0587 35.9508 27.2258 35.4747 27.4894 35.0514C27.7416 34.658 28.0543 34.3067 28.416 34.0107L28.6034 33.8442L28.2077 33.5319C28.0828 33.4279 27.9579 33.3238 27.8121 33.2197H27.7601H27.6039H27.5414L27.2916 33.4383C26.6324 34.0357 26.1499 34.8024 25.8965 35.655C25.753 36.2914 25.6659 36.9392 25.6362 37.5908V37.7261C25.6362 38.0175 25.6362 38.3193 25.6362 38.6107V39.0478C25.6362 39.1831 25.6362 39.308 25.6362 39.4433V39.8388L26.8127 39.8492Z" fill="#231F20" stroke="#231F20" stroke-width="0.1"/>
<path d="M35.2345 35.0515C35.5326 35.4813 35.7317 35.9718 35.8175 36.4877C35.9467 37.5234 36.0093 38.5663 36.0049 39.6099V39.8909H37.2021V39.4955C37.2126 39.3638 37.2126 39.2316 37.2021 39.1V38.6629C37.2021 38.3715 37.2021 38.0696 37.2021 37.7678V37.6429C37.1476 36.9748 37.0326 36.3129 36.8586 35.6655C36.6052 34.8129 36.1227 34.0462 35.4635 33.4488L35.2136 33.2302H35.1304H34.995C34.8493 33.3343 34.7243 33.4384 34.5994 33.5424L34.1934 33.8547L34.3912 34.0212C34.7224 34.3203 35.0067 34.6677 35.2345 35.0515Z" fill="#231F20" stroke="#231F20" stroke-width="0.1"/>
<path d="M60.221 19.8879L60.096 19.2114L59.4193 19.2843C53.1102 19.9711 50.4659 23.5409 49.3831 26.6839C48.0922 21.9589 44.4691 14.9028 34.3184 12.0303L33.4439 11.7806L33.3814 12.686C33.3814 12.9566 32.9338 19.5028 37.1814 24.0196C39.7217 26.7151 43.376 28.0889 48.0401 28.0889H48.3108C48.5218 29.0856 48.6438 30.0991 48.6752 31.1174V31.388C48.7254 32.7563 48.6418 34.1261 48.4253 35.4781C47.7109 39.9885 45.4144 44.0976 41.9467 47.0703C38.479 50.043 34.0663 51.6852 29.4981 51.7032C24.3721 51.5524 19.5089 49.4007 15.9506 45.7091C12.3923 42.0175 10.4218 37.0796 10.4612 31.9532C10.5007 26.8269 12.547 21.9199 16.1618 18.2835C19.7766 14.6471 24.6723 12.5705 29.8 12.4987V11C24.2833 11.0765 19.0161 13.3108 15.1279 17.2239C11.2397 21.1369 9.04004 26.4171 9.00054 31.9323C8.96105 37.4476 11.0849 42.7587 14.9166 46.727C18.7484 50.6953 23.983 53.0047 29.4981 53.1602C34.4025 53.1287 39.1368 51.36 42.8596 48.1682C46.5824 44.9764 49.0525 40.5685 49.8308 35.7279C49.9349 35.1555 49.9974 34.5623 50.0494 33.917C51.6569 33.75 53.2132 33.2557 54.6223 32.4646C56.0315 31.6734 57.2636 30.6022 58.2429 29.3169C60.0437 26.5257 60.7483 23.1672 60.221 19.8879ZM38.2642 23.0101C35.3491 19.8879 34.891 15.6001 34.839 13.7163C43.428 16.4847 46.6658 22.4065 47.8839 26.6006C43.7195 26.5798 40.4817 25.3726 38.2642 23.0205V23.0101ZM57.004 28.4635C56.1695 29.5488 55.1261 30.456 53.9352 31.1317C52.7443 31.8074 51.4302 32.2378 50.0702 32.3975C50.0702 32.0645 50.0702 31.7106 50.0702 31.3568C50.0702 29.1817 50.5283 22.1359 58.8259 20.8454C59.1055 23.5173 58.4745 26.2053 57.0352 28.4739L57.004 28.4635Z" fill="#231F20" stroke="#231F20" stroke-width="0.1"/>
</svg>
