<svg width="65" height="65" viewBox="0 0 65 65" fill="none" xmlns="http://www.w3.org/2000/svg">
<rect width="65" height="65" fill="white"/>
<path d="M26.9616 39.7197H36.6054C37.3896 39.7172 38.1475 39.437 38.7447 38.9288C39.3419 38.4207 39.7399 37.7174 39.8679 36.9438L41.173 28.24H43.6282C44.286 28.2974 44.9484 28.2101 45.5689 27.9841C46.1894 27.7582 46.7528 27.3992 47.2198 26.9323C47.6867 26.4654 48.0457 25.9019 48.2716 25.2814C48.4976 24.6609 48.5849 23.9985 48.5275 23.3407C48.5829 22.6833 48.4942 22.0217 48.2676 21.4021C48.041 20.7825 47.6819 20.2199 47.2154 19.7534C46.749 19.2869 46.1863 18.9278 45.5667 18.7012C44.9471 18.4746 44.2855 18.3859 43.6282 18.4413H42.5222L42.9425 15.223H20.5913L23.699 36.9438C23.8271 37.7174 24.225 38.4207 24.8223 38.9288C25.4195 39.437 26.1774 39.7172 26.9616 39.7197ZM38.3086 36.6563C38.2595 37.0658 38.0671 37.4447 37.7656 37.726C37.464 38.0074 37.0726 38.173 36.6607 38.1935H26.9063C26.4924 38.1755 26.0984 38.011 25.7945 37.7295C25.4907 37.4479 25.2968 37.0676 25.2473 36.6563L24.1414 28.24H39.514L38.3086 36.6563ZM43.6613 20.0671C44.1117 20.0047 44.5703 20.0475 45.0013 20.1921C45.4323 20.3368 45.8239 20.5794 46.1454 20.9008C46.4669 21.2223 46.7095 21.6139 46.8541 22.0449C46.9988 22.4759 47.0416 22.9346 46.9792 23.3849C47.0416 23.8352 46.9988 24.2939 46.8541 24.7249C46.7095 25.1559 46.4669 25.5475 46.1454 25.869C45.8239 26.1904 45.4323 26.433 45.0013 26.5777C44.5703 26.7224 44.1117 26.7652 43.6613 26.7027H41.3389L42.3342 20.0671H43.6613ZM41.0955 16.8156L39.6246 26.6917H23.7986L22.3166 16.8156H41.0955Z" fill="#231F20"/>
<path d="M47.7096 42.9824H26.6966C25.7086 41.3603 23.7474 40.5456 20.813 40.5382C15.0953 40.5382 14.2769 43.6349 14.2769 45.4375C14.2769 47.2402 15.04 50.359 20.7577 50.359C23.7069 50.359 25.6681 49.5406 26.6413 47.9038H47.7096C48.3308 47.862 48.913 47.5858 49.3383 47.131C49.7635 46.6762 50.0001 46.0768 50.0001 45.4541C50.0001 44.8315 49.7635 44.2321 49.3383 43.7773C48.913 43.3225 48.3308 43.0462 47.7096 43.0045V42.9824ZM47.7096 46.3002H25.657L25.4911 46.7979C25.0045 48.1471 23.3677 48.8217 20.7577 48.8217C15.8584 48.8217 15.7588 46.3002 15.7588 45.5039C15.7588 44.7076 15.8584 42.1861 20.7577 42.1861C23.3677 42.1861 24.8386 42.8607 25.4911 44.1989L25.657 44.7076H47.7096C47.9325 44.7076 48.1463 44.7962 48.3039 44.9538C48.4616 45.1114 48.5501 45.3252 48.5501 45.5481C48.5501 45.7711 48.4616 45.9849 48.3039 46.1425C48.1463 46.3001 47.9325 46.3887 47.7096 46.3887V46.3002Z" fill="#231F20"/>
</svg>
