<svg width="65" height="65" viewBox="0 0 65 65" fill="none" xmlns="http://www.w3.org/2000/svg">
<rect width="65" height="65" fill="white"/>
<path d="M15.3325 31.3942H4V32.8769H15.3325V31.3942Z" fill="#231F20"/>
<path d="M20.2046 36.0542H8.87207V37.537H20.2046V36.0542Z" fill="#231F20"/>
<path d="M18.6157 26.734H7.2832V28.2168H18.6157V26.734Z" fill="#231F20"/>
<path d="M37.5741 48.2341H13.744V44.8449H36.9386C36.9386 44.6331 36.9386 44.3153 36.9386 43.9976C36.9386 43.7858 36.9386 43.574 36.9386 43.2562H13.744V39.0198H12.2612V49.7168H38.3154C37.9977 49.2932 37.68 48.7636 37.5741 48.2341Z" fill="#231F20"/>
<path d="M13.7439 20.0616H25.606V24.8276H27.0888V20.0616H38.8449V24.8276H40.3277V20.0616H52.2957V34.2537C52.8253 34.4655 53.3548 34.6774 53.7785 34.9951V18.5788H40.3277V18.367C40.4336 16.4606 39.9041 13.9187 38.1036 12.0123C36.8326 10.6355 35.0321 10 32.9139 10C30.7957 10 28.9952 10.6355 27.7242 12.0123C25.9238 13.8128 25.3942 16.4606 25.5001 18.2611V18.4729H12.1553V25.0394H13.638V20.0616H13.7439ZM27.0888 18.367C27.0888 16.8842 27.5124 14.6601 28.8893 13.1773C29.9484 12.1182 31.3252 11.5887 33.0198 11.5887C34.7144 11.5887 36.0912 12.1182 37.0445 13.1773C38.4213 14.6601 38.8449 16.8842 38.8449 18.367V18.5788H27.0888V18.367Z" fill="#231F20"/>
<path d="M47.5293 51.5173C44.6697 51.5173 40.0096 50.5641 40.0096 43.9976C40.0096 37.4311 44.6697 36.4779 47.5293 36.4779C50.3889 36.4779 55.049 37.4311 55.049 43.9976C55.049 50.5641 50.283 51.5173 47.5293 51.5173ZM47.5293 34.9951C41.916 34.9951 38.5269 38.3843 38.5269 43.9976C38.5269 49.6109 41.916 53.0001 47.5293 53.0001C53.1426 53.0001 56.5318 49.6109 56.5318 43.9976C56.5318 38.3843 53.1426 34.9951 47.5293 34.9951Z" fill="#231F20"/>
<path d="M48.2708 38.702H46.7881V45.0567L50.7068 47.5986L51.5541 46.3276L48.3768 44.2094V38.702H48.2708Z" fill="#231F20"/>
</svg>
