<svg width="65" height="65" viewBox="0 0 65 65" fill="none" xmlns="http://www.w3.org/2000/svg">
<rect width="65" height="65" fill="white"/>
<path d="M56.0154 49.5347V49.4635C56.0154 37.182 47.7836 28.2685 36.4383 28.2685C36.0923 28.2685 35.7565 28.2685 35.4208 28.2685C35.4208 28.2685 35.4208 28.2075 35.4208 28.177C35.2071 26.5184 34.9832 24.8802 34.7899 23.2522L34.2506 19.1821C34.2445 19.1235 34.2234 19.0675 34.1896 19.0193L33.925 16.9842L26.9448 13.1787H19.466L12.3841 16.9537H12.3332L9.93186 36.1849C9.81844 36.6672 9.54387 37.0965 9.15352 37.4017C8.76317 37.707 8.28038 37.87 7.78489 37.8638H7.56104V39.4918H19.1099C17.7156 42.6242 16.9647 46.0048 16.9019 49.433V49.5042H15.2535V51H57.6434V49.5347H56.0154ZM19.9443 37.8943H11.0003C11.2957 37.4602 11.4936 36.9673 11.5802 36.4494L13.8798 18.0119L19.8018 14.7762H26.4666L32.3987 18.0119L33.752 28.4721C30.868 28.8342 28.1115 29.8776 25.7105 31.516C23.3095 33.1544 21.333 35.3408 19.9443 37.8943ZM54.54 49.5347H18.418V49.4635C18.7538 37.6806 25.9985 29.7643 36.4586 29.7643C46.9187 29.7643 54.5095 38.0571 54.5095 49.4635L54.54 49.5347Z" fill="#231F20"/>
<path d="M35.6851 47.7848H37.2113V36.47H35.6851V47.7848Z" fill="#231F20"/>
<path d="M29.5901 36.1034C29.4374 36.2255 29.295 36.3577 29.1423 36.5002C27.9541 37.5654 27.0842 38.939 26.6291 40.4685C26.3412 41.7181 26.1743 42.9925 26.1305 44.274C26.0796 45.0982 26.0593 45.9326 26.0186 46.7568C26.0186 47.1129 26.0186 47.4792 26.0186 47.8252H27.4838V47.7031C27.4784 45.747 27.6008 43.7925 27.8501 41.8523C27.973 40.8324 28.3205 39.8524 28.8676 38.9829C29.3665 38.2181 29.977 37.5321 30.6788 36.9479C30.3125 36.6528 29.9869 36.3679 29.5799 36.083L29.5901 36.1034Z" fill="#231F20"/>
<path d="M46.2988 40.4686C45.8388 38.9412 44.9696 37.5689 43.7855 36.5002C43.643 36.3578 43.4904 36.2255 43.3479 36.1034C42.9511 36.3883 42.6153 36.6732 42.249 36.9683C42.9534 37.5499 43.5642 38.2363 44.0602 39.0033C44.6113 39.8709 44.9592 40.8518 45.0777 41.8727C45.327 43.8129 45.4494 45.7673 45.444 47.7235V47.8456H46.9093C46.9093 47.4996 46.9093 47.1333 46.9093 46.7772C46.9093 45.953 46.8584 45.1186 46.7973 44.2944C46.7498 43.0065 46.5829 41.7257 46.2988 40.4686Z" fill="#231F20"/>
</svg>
