<svg width="65" height="65" viewBox="0 0 65 65" fill="none" xmlns="http://www.w3.org/2000/svg">
<rect width="65" height="65" fill="white"/>
<path d="M35.7312 51.8784V30.3835L43.6728 26.5112V31.8444L45.2704 31.0676V25.7344L53.212 21.8737V43.357L35.7312 51.8784ZM34.9324 29.0387L17.6369 20.61L25.3933 16.8304L42.6888 25.2591L34.9324 29.0387ZM52.228 20.61L44.46 24.3432L27.1761 15.9725L34.9324 12.1929L52.228 20.61ZM34.9324 10.4307L15.0669 20.1347V27.5779H16.676V21.8737L34.1568 30.3835V51.8784L16.676 43.357V41.5136H15.0669V44.3193L34.9324 54.0001L54.8095 44.3193V20.1347L34.9324 10.4307Z" fill="#231F20"/>
<path d="M18.2394 33.7804H7.11426V35.3224H18.2394V33.7804Z" fill="#231F20"/>
<path d="M23.0085 38.4181H11.8833V39.9717H23.0085V38.4181Z" fill="#231F20"/>
<path d="M21.4235 29.1313H10.2983V30.6849H21.4235V29.1313Z" fill="#231F20"/>
</svg>
