<?xml version="1.0" encoding="UTF-8"?>
<svg id="Nespresso_Blue_Bottle_PMS2995" data-name="Nespresso | Blue Bottle PMS2995" xmlns="http://www.w3.org/2000/svg" viewBox="0 0 778.18 472.44">
  <defs>
    <style>
      .cls-1 {
        fill: #00a7e1;
      }

      .cls-1, .cls-2 {
        stroke-width: 0px;
      }

      .cls-2 {
        fill: #fff;
      }
    </style>
  </defs>
  <rect class="cls-1" x="94.49" y="94.49" width="283.46" height="283.46"/>
  <g>
    <path class="cls-2" d="m336.06,313.35c-30.25,10.56-66.49,1.93-86.24-17.33-3.05-2.57-13.82-14.24-18-19.23-9.47-11.12-22.12-28.71-32.92-42.49v56.19h-15.35v-111.34c17.19,14.03,34.55,41.87,47.54,58.62,0,0,25.23,33.97,35.78,46.01,8.15,10.02,22.3,20.98,32.17,24.65,13.21,5.26,26.62,6.08,37.01,3.85v1.06"/>
    <path class="cls-2" d="m136.37,159.09c30.25-10.56,66.49-1.93,86.24,17.33,3.05,2.57,13.82,14.24,18,19.23,9.47,11.12,22.12,28.72,32.92,42.49v-56.19h15.35v111.34c-17.19-14.03-34.55-41.87-47.54-58.62,0,0-25.24-33.97-35.78-46.01-8.15-10.02-22.3-20.98-32.17-24.65-13.21-5.26-26.62-6.07-37.01-3.85v-1.06Z"/>
  </g>
  <rect class="cls-1" x="471.58" y="80.82" width="2.54" height="310.81"/>
  <path class="cls-1" d="m682.23,224.46c-.5-3.66-1.08-7-1.66-10.16-4.49-15.33-10.05-31.66-25.42-38.66-6.48-2.5-18.77-1.92-20.52-17.25,0-4.08-.08-46.32-.08-46.32l-19.52,4v3s-.33,8.92-.33,8.83c0,0,0,4.17.17,9.25.41,23.66,1.66,38.66-24.01,48.32-15.87,6-16.86,13.16-18.52,31.41-.08,1.33-.25,2.58-.33,3.83,0-.5-5.23,51.15,12.05,133.38,0,0,2.66,13.41,2.99,15.33.17,1,1.16,2.33,3.9,4.25,29.41,7.08,35.72,1.92,51.17,4,15.62,2.08,29.66-8.08,29.91-8.25,1.58-.42,6.65-11.08,7.31-24.33,6.07-35.99,4.57-93.31,2.91-120.63m-63.88-117.05c-9.22-1.25-11.55-.33-11.63-9.33.17-2.17,2.33-6.91,6.65.08,1.91,2.25,4.32,3.5,6.31,4.17-1.83-.67,11.96,2.5,21.1.66,2.33,1.58,0,4.5-.75,5.33-.25.25-8.97,2.42-17.36,1.83-.08-.25-.91-2.5-.91-2.5.08,0-3.16-.25-3.41-.25"/>
</svg>