<svg xmlns="http://www.w3.org/2000/svg" width="24" height="24" viewBox="0 0 24 24" fill="#000000">
  <path d="M22 11.5C22 6.593 18.542 4 12 4S2 6.593 2 11.5C2 16.406 5.458 19 12 19c1.29 0 2.483-.106 3.556-.315l4.619 3.198.802-.534-1.618-4.206C21.112 15.869 22 13.973 22 11.5Zm-2.549 8.665-3.678-2.547-.211.045C14.504 17.887 13.306 18 12 18c-5.972 0-9-2.187-9-6.5C3 7.187 6.028 5 12 5c5.972 0 9 2.187 9 6.5 0 2.297-.824 3.943-2.52 5.032l-.342.22 1.313 3.413Z"/>
  <path d="M8 12.25a.75.75 0 1 0 0-1.5.75.75 0 0 0 0 1.5Zm8 0a.75.75 0 1 0 0-1.5.75.75 0 0 0 0 1.5Zm-4 0a.75.75 0 1 0 0-1.5.75.75 0 0 0 0 1.5Z"/>
</svg>