<?xml version="1.0" encoding="UTF-8"?>
<svg  width="181.000000pt" height="151.000000pt" viewBox="0 0 181.000000 151.000000" preserveAspectRatio="xMidYMid meet" style="width:60px;height:60px;" version="1.1" xmlns="http://www.w3.org/2000/svg" xmlns:xlink="http://www.w3.org/1999/xlink" fill="#8D6708"><g transform="translate(-20,151.000000) scale(0.100000,-0.100000)" fill="#8D6708" stroke="none"> <path d="M598 1243 c-26 -3 -38 -9 -38 -20 0 -12 9 -14 43 -12 l44 4 -39 -46 c-21 -25 -38 -48 -38 -52 0 -18 28 -3 68 36 l43 42 -2 -47 c-2 -26 0 -51 5 -55 14 -15 26 23 26 90 l0 67 -37 -2 c-21 -1 -55 -3 -75 -5z"></path> <path d="M1032 1188 c-49 -13 -73 -58 -70 -133 2 -45 7 -60 18 -60 12 0 16 15 18 65 3 71 22 100 68 100 44 0 64 -33 64 -105 0 -51 3 -65 15 -65 12 0 15 14 15 69 0 59 -4 74 -25 99 -28 34 -56 42 -103 30z"></path> <path d="M1520 1151 c0 -17 75 -120 88 -121 20 0 14 19 -25 76 -34 49 -63 69 -63 45z"></path> <path d="M481 949 c-25 -73 -26 -89 -8 -89 8 0 22 26 32 63 23 75 23 79 9 84 -7 2 -21 -23 -33 -58z"></path> <path d="M960 865 c0 -58 2 -65 20 -65 18 0 20 7 20 65 0 58 -2 65 -20 65 -18 0 -20 -7 -20 -65z"></path> <path d="M1130 865 c0 -58 2 -65 20 -65 18 0 20 7 20 65 0 58 -2 65 -20 65 -18 0 -20 -7 -20 -65z"></path> <path d="M1645 903 c4 -10 9 -44 12 -75 4 -40 10 -58 19 -58 9 0 14 13 14 38 0 56 -18 112 -37 112 -10 0 -13 -5 -8 -17z"></path> <path d="M960 685 c0 -58 2 -65 20 -65 18 0 20 7 20 65 0 58 -2 65 -20 65 -18 0 -20 -7 -20 -65z"></path> <path d="M1130 685 c0 -58 2 -65 20 -65 18 0 20 7 20 65 0 58 -2 65 -20 65 -18 0 -20 -7 -20 -65z"></path> <path d="M453 682 c8 -73 15 -92 34 -92 10 0 13 6 9 17 -4 9 -9 43 -13 75 -4 42 -10 58 -21 58 -12 0 -14 -10 -9 -58z"></path> <path d="M1650 630 c0 -11 -9 -42 -19 -70 -18 -47 -14 -69 9 -55 11 7 40 99 40 127 0 10 -7 18 -15 18 -8 0 -15 -9 -15 -20z"></path> <path d="M1001 572 c-40 -21 -71 -73 -71 -117 0 -37 30 -88 65 -111 56 -36 150 -11 181 48 35 67 15 139 -49 178 -40 25 -82 25 -126 2z m109 -27 c88 -46 56 -185 -43 -185 -49 0 -73 13 -92 50 -24 46 -19 78 19 116 38 38 70 43 116 19z"></path> <path d="M520 467 c0 -21 70 -117 85 -117 21 0 19 5 -22 71 -36 54 -63 75 -63 46z"></path> <path d="M1497 345 c-32 -35 -44 -56 -37 -60 13 -8 110 82 110 102 0 25 -25 10 -73 -42z"></path> <path d="M705 270 c-10 -16 1 -26 61 -61 45 -25 58 -29 64 -18 6 10 -5 21 -42 41 -28 15 -56 32 -63 38 -9 8 -15 8 -20 0z"></path> <path d="M1283 202 c-36 -15 -63 -32 -63 -40 0 -17 30 -11 102 20 31 13 45 24 41 34 -6 17 -3 17 -80 -14z"></path> <path d="M950 157 c0 -18 30 -27 98 -27 40 0 52 4 52 15 0 11 -12 15 -44 15 -24 0 -58 3 -75 6 -24 5 -31 3 -31 -9z"></path> </g> </svg>