<svg xmlns="http://www.w3.org/2000/svg" width="60" height="62" viewBox="0 0 60 62">
    <g fill="none" fill-rule="evenodd">
        <g>
            <g>
                <g>
                    <g>
                        <g transform="translate(-511 -547) translate(0 176) translate(275 329.928) translate(211 42) translate(25)">
                            <ellipse cx="30" cy="30.145" fill="#FFF" rx="30" ry="30.145"/>
                            <g fill="#8D6708">
                                <path d="M31.54 3.86c.374.405.359.217.086 2.718-.058.448-.216.955-.36 1.143-.288.376-1.093.636-1.266.433-.086-.1.273-4.25.403-4.814.043-.16.864.203 1.137.52zm-2.273-2.342c0 .348-.29 3.166-.374 3.499l-.058.332h-4.316c-2.893 0-4.317-.043-4.317-.144 0-.26-.288-2.935-.374-3.44l-.072-.464h4.763c4.07 0 4.748.029 4.748.217zM18.706.376c-.231.332-.231.52.014 2.906l.258 2.545.634.346c.618.333.719.333 4.864.333h4.215v.348c0 .36-.647 6.693-.806 7.923l-.086.693h-6.547l-.187-1.995c-.245-2.602-.23-2.574-.906-1.981l-.547.477.23 2.155c.158 1.489.302 2.211.46 2.385.216.231.59.26 4.217.26 3.942 0 3.985 0 4.273-.332.244-.275.33-.795.604-3.572.187-1.792.36-3.295.388-3.354.044-.072.389-.115.763-.115.763 0 1.425-.362 1.929-1.041.33-.448.733-3.456.589-4.367-.115-.752-.993-1.619-1.871-1.85l-.662-.188.058-.68c.057-.564.014-.737-.244-.983-.302-.274-.475-.29-5.857-.29h-5.553l-.23.377z" transform="translate(7 22.106)"/>
                                <path d="M43.425 3.47c.733.274.835.665.647 2.386-.202 1.778-.418 2.168-1.325 2.327l-.545.087.072-.477c.042-.274.143-1.244.23-2.154.244-2.517.215-2.443.92-2.169zM31.784.52c-.057.376-.028.564.1.651.102.072 2.346.13 4.978.13 3.08 0 4.779.058 4.779.144 0 .088-1.554.145-4.39.145H32.85l.547.651.532.65h3.783c2.086 0 3.784.014 3.784.044 0 .029-.288 2.834-.647 6.246-.36 3.427-.647 6.231-.647 6.246 0 .029-1.483.043-3.282.043h-3.28l-.258-2.501c-.13-1.359-.273-2.69-.316-2.935l-.088-.463-.56.376c-.303.202-.561.478-.561.621 0 .145.13 1.475.288 2.965.215 2.01.358 2.775.531 2.979.216.245.547.259 4.23.259h4l.26-.347c.216-.275.33-.983.605-3.57.172-1.78.358-3.283.386-3.34.045-.073.39-.116.764-.116.547 0 .82-.102 1.294-.449.792-.563.95-.997 1.151-3.05.145-1.49.13-1.764-.072-2.284-.286-.71-1.136-1.389-1.884-1.533l-.503-.101.057-.694c.058-.58.014-.752-.245-.998-.302-.275-.474-.29-5.568-.29h-5.267l-.1.52zM18.835 8.588c.187.274.2.419.072.65-.187.348-.59.593-.993.593-.331 0-.374-.289-.216-1.142.072-.375.158-.448.504-.448.273 0 .489.116.633.347m-2.23-1.431c0 .188-.52.217-3.741.217-3.223 0-3.741-.03-3.741-.217 0-.188.518-.217 3.74-.217 3.223 0 3.742.03 3.742.217m-8.576-1.07c-.26.29-.302.809-.115 1.763.144.695.59.781 4.734.81 2.058.014 3.74.043 3.755.058 0 .029-.762 6.535-.805 6.709 0 .028-1.223.043-2.72.043h-2.72l-.086-.405c-.043-.217-.115-.738-.158-1.157l-.1-.752-.432.363c-.231.202-.49.36-.576.36-.1 0-.115.362-.057 1.115.172 1.836.028 1.777 4.115 1.777 3.28 0 3.424-.015 3.683-.303.216-.231.33-.824.56-2.776.289-2.458.289-2.488.649-2.53 1.007-.102 1.338-.232 1.798-.622.705-.637.907-1.373.59-2.226-.302-.767-.877-1.23-1.67-1.33-.473-.073-.575-.146-.575-.406 0-.173-.114-.419-.258-.55-.231-.216-.792-.246-4.806-.246-4.403 0-4.533.015-4.806.305" transform="translate(7 22.106)"/>
                                <path d="M5.813 11.523c0 .072-.1.897-.216 1.85-.115.94-.216 1.808-.216 1.908 0 .16-.36.19-1.683.16L2 15.396l-.216-1.922c-.13-1.055-.2-1.952-.158-1.98.115-.117 4.187-.074 4.187.028zm2.13-.65c.1.1.172.26.172.346 0 .275-.417.636-.734.636-.215 0-.273-.101-.273-.477 0-.275.043-.535.101-.578.144-.159.546-.116.733.073zm-1.986-.825c0 .188-.317.217-2.259.188-1.64-.029-2.26-.086-2.317-.23-.043-.132.475-.175 2.26-.175 1.985 0 2.316.03 2.316.217zM.345 8.892L0 9.268l.403 3.498c.36 3.153.431 3.528.705 3.745.273.217.662.26 2.633.26 2.85 0 2.734.073 2.978-2.04l.173-1.502.575-.087c1.152-.159 1.943-.925 1.943-1.85 0-.897-.892-1.895-1.683-1.895-.187 0-.432-.173-.619-.433l-.302-.434H.676l-.33.362z" transform="translate(7 22.106)"/>
                            </g>
                        </g>
                    </g>
                </g>
            </g>
        </g>
    </g>
</svg>
