<?xml version="1.0" encoding="UTF-8"?>
<svg xmlns="http://www.w3.org/2000/svg" xmlns:xlink="http://www.w3.org/1999/xlink" version="1.1" width="60" height="60" viewBox="0 0 100 100"><g enable-background="new"><g><clipPath id="cp0"><path transform="matrix(1,0,0,-1,0,100)" d="M 0 100 L 100 100 L 100 0 L 0 0 Z "></path></clipPath><g clip-path="url(#cp0)"><path transform="matrix(1,0,0,-1,62.0508,56.6895)" stroke-width="2" stroke-linecap="butt" stroke-linejoin="bevel" fill="none" stroke="#8D6708" d="M 0 0 L 3.356 0 C 5.672 0 7.55 -1.877 7.55 -4.193 C 7.55 -6.51 5.672 -8.387 3.356 -8.387 L -2.248 -8.387 "></path><path transform="matrix(1,0,0,-1,56.8652,76)" stroke-width="2" stroke-linecap="butt" stroke-linejoin="bevel" fill="none" stroke="#8D6708" d="M 0 0 L -20.166 0 L -26.254 22.142 L 5.954 22.142 L 0 0 Z "></path><path transform="matrix(1,0,0,-1,60.8213,61.2891)" stroke-width="2" stroke-linecap="butt" stroke-linejoin="bevel" fill="none" stroke="#8D6708" d="M 0 0 L -28.167 0 "></path><path transform="matrix(1,0,0,-1,62.8008,53.8896)" stroke-width="2" stroke-linecap="butt" stroke-linejoin="bevel" fill="none" stroke="#8D6708" d="M 0 0 C .119 .481 .188 .982 .188 1.501 C .188 4.98 -2.654 7.801 -6.16 7.801 C -7.31 7.801 -8.384 7.493 -9.314 6.963 C -10.496 9.516 -13.089 11.292 -16.106 11.292 C -19.123 11.292 -21.716 9.516 -22.898 6.963 C -23.828 7.493 -24.903 7.801 -26.052 7.801 C -29.559 7.801 -32.401 4.98 -32.401 1.501 C -32.401 .982 -32.329 .481 -32.21 0 "></path></g></g></g></svg>