<?xml version="1.0" encoding="UTF-8"?>
<svg width="60px" height="62px" viewBox="0 0 60 62" version="1.1" xmlns="http://www.w3.org/2000/svg" xmlns:xlink="http://www.w3.org/1999/xlink">
    <title>92023FB5-8D97-4E61-9F03-7305C167165F</title>
    <g id="Machine-Path-Updates---2021" stroke="none" stroke-width="1" fill="none" fill-rule="evenodd">
        <g id="D---Machine-Landing---Default-(Alt)" transform="translate(-871.000000, -547.000000)">
            <g id="Modules/Hero/Light" transform="translate(0.000000, 176.000000)">
                <g id="Machine-Features" transform="translate(275.000000, 329.927536)">
                    <g id="Energy-Saving" transform="translate(571.000000, 42.000000)">
                        <g id="icon-EnergySavingMode" transform="translate(25.000000, 0.000000)">
                            <ellipse id="Oval-Copy" fill="#FFFFFF" cx="30" cy="30.1449275" rx="30" ry="30.1449275"></ellipse>
                            <g id="Icons/Features/Energy-Saving" transform="translate(13.000000, 11.053140)" fill="#8D6708" fill-rule="nonzero">
                                <g id="icon-EnergySavingMode">
                                    <polygon id="Stroke-2" points="17.7857975 0 17.7857975 14.1107076 16.3464035 14.1107076 16.3464035 0"></polygon>
                                    <path d="M22.5250401,6.66372605 C28.8059478,9.01566689 33.0576408,15.0589674 33.0576408,21.9067043 C33.0576408,30.7986037 25.9555122,38.0237839 17.1405924,38.1673983 L16.8729549,38.1695771 L16.8729549,37.0407204 C25.1908635,37.0407204 31.9342114,30.2649643 31.9342114,21.9067043 C31.9342114,15.6118816 28.0734083,10.0474207 22.3457259,7.8031188 L22.1327396,7.72151952 L22.5250401,6.66372605 Z" id="Stroke-3"></path>
                                    <path d="M16.8730111,37.0406076 L16.3112964,37.0406076 C16.0010699,37.0406076 15.7495817,37.2933107 15.7495817,37.6050359 C15.7495817,37.916761 16.0010699,38.1694642 16.3112964,38.1694642 L16.8730111,38.1694642 C17.1832376,38.1694642 17.4347258,37.916761 17.4347258,37.6050359 C17.4347258,37.2933107 17.1832376,37.0406076 16.8730111,37.0406076 Z M13.1109871,36.5647418 L12.56697,36.4241775 C12.2665176,36.3465461 11.9603227,36.5283547 11.8830644,36.8302585 C11.8058062,37.1321624 11.9867407,37.4398365 12.2871931,37.517468 L12.8312102,37.6580322 C13.1316626,37.7356637 13.4378575,37.5538551 13.5151158,37.2519512 C13.592374,36.9500474 13.4114395,36.6423733 13.1109871,36.5647418 Z M9.59057133,35.1570073 L9.099116,34.8836729 C8.82769272,34.7327144 8.48587301,34.8314334 8.33564032,35.1041679 C8.18540762,35.3769024 8.28365201,35.7203734 8.55507529,35.8713319 L9.04653062,36.1446663 C9.3179539,36.2956248 9.65977361,36.1969058 9.8100063,35.9241713 C9.96023899,35.6514368 9.86199461,35.3079658 9.59057133,35.1570073 Z M6.53994172,32.9169638 L6.13134484,32.5296513 C5.90568302,32.3157446 5.55017595,32.3261577 5.33729757,32.5529096 C5.1244192,32.7796616 5.13478223,33.1368861 5.36044405,33.3507929 L5.76904092,33.7381054 C5.99470275,33.9520121 6.35020982,33.941599 6.56308819,33.7148471 C6.77596657,33.4880951 6.76560354,33.1308706 6.53994172,32.9169638 Z M4.12239188,29.9654601 L3.82283604,29.4879912 C3.65739591,29.2242925 3.31053784,29.145286 3.04810685,29.3115253 C2.78567585,29.4777647 2.70704922,29.8262984 2.87248934,30.0899972 L3.17204518,30.567466 C3.33748531,30.8311648 3.68434338,30.9101713 3.94677437,30.7439319 C4.20920537,30.5776926 4.287832,30.2291589 4.12239188,29.9654601 Z M2.51334324,26.4858626 L2.34356153,25.9478344 C2.24979368,25.6506897 1.93405451,25.4861873 1.63833834,25.5804082 C1.34262217,25.674629 1.17891071,25.9918935 1.27267856,26.2890382 L1.44246027,26.8270664 C1.53622812,27.1242111 1.8519673,27.2887135 2.14768346,27.1944926 C2.44339963,27.1002718 2.60711109,26.7830073 2.51334324,26.4858626 Z M1.8371955,22.7943836 L1.80478891,22.2308954 C1.78689124,21.9196895 1.52131295,21.6819862 1.21160319,21.6999704 C0.901893429,21.7179545 0.66533299,21.9848158 0.683230658,22.2960217 L0.715637253,22.8595099 C0.733534921,23.1707159 0.999113213,23.4084191 1.30882297,23.390435 C1.61853273,23.3724508 1.85509317,23.1055896 1.8371955,22.7943836 Z M2.09033707,18.9942706 L2.19779681,18.4402671 C2.25714518,18.1342994 2.05841321,17.8379198 1.75391653,17.7782848 C1.44941984,17.7186497 1.15446514,17.9183417 1.09511677,18.2243094 L0.987657031,18.7783129 C0.928308657,19.0842806 1.12704063,19.3806602 1.43153731,19.4402953 C1.736034,19.4999303 2.0309887,19.3002383 2.09033707,18.9942706 Z M3.28061782,15.3795923 L3.52319882,14.870511 C3.65717261,14.5893531 3.53895212,14.2522977 3.25914597,14.1176767 C2.97933981,13.9830557 2.64390489,14.1018473 2.5099311,14.3830052 L2.2673501,14.8920866 C2.13337631,15.1732444 2.2515968,15.5102998 2.53140295,15.6449208 C2.81120911,15.7795418 3.14664403,15.6607502 3.28061782,15.3795923 Z M5.35468195,12.155503 L5.71684707,11.7240573 C5.91686534,11.4857764 5.88677603,11.1296814 5.64964073,10.9286969 C5.41250542,10.7277123 5.05812243,10.757947 4.85810416,10.9962279 L4.49593905,11.4276736 C4.29592078,11.6659545 4.32601008,12.0220495 4.56314539,12.223034 C4.80028069,12.4240185 5.15466369,12.3937839 5.35468195,12.155503 Z M8.11779305,9.59139546 L8.57459748,9.26293236 C8.82688361,9.0815272 8.88505099,8.72896293 8.70451797,8.47545803 C8.52398495,8.22195314 8.17311571,8.16350475 7.92082958,8.34490991 L7.46402514,8.67337301 C7.21173902,8.85477818 7.15357163,9.20734244 7.33410466,9.46084734 C7.51463768,9.71435224 7.86550692,9.77280062 8.11779305,9.59139546 Z" id="Stroke-4"></path>
                                    <polygon id="Stroke-5" points="10.7292565 6.20871136 10.7292565 10.1597095 9.60582705 10.1597095 9.60532151 7.33700355 6.79725351 7.33756797 6.79725351 6.20871136"></polygon>
                                </g>
                            </g>
                        </g>
                    </g>
                </g>
            </g>
        </g>
    </g>
</svg>