<svg xmlns="http://www.w3.org/2000/svg" width="60" height="62" viewBox="0 0 60 62">
    <g fill="none" fill-rule="evenodd">
        <g>
            <g>
                <g>
                    <g>
                        <g transform="translate(-391 -547) translate(0 176) translate(275 329.928) translate(91 42) translate(25)">
                            <ellipse cx="30" cy="30.145" fill="#FFF" rx="30" ry="30.145"/>
                            <g fill="#8D6708">
                                <g>
                                    <path d="M17.636 12.63h-.999V9.453h1c.871 0 1.58.712 1.58 1.588 0 .877-.709 1.59-1.58 1.59zm-1.911-3.636v.238H6.856V7.346h8.869v1.648zm1.911-.459h-.999V6.888l-.456-.46H6.399l-.456.46V16.98c0 1.109.784 2.036 1.824 2.253l-.007-.422c-.006-.205-.01-.384-.012-.541-.52-.198-.892-.7-.892-1.29V10.15h8.869v6.832c0 .763-.618 1.383-1.377 1.383h-2.53l.043.918h2.487c1.263 0 2.29-1.032 2.29-2.3v-3.434h.998c1.376 0 2.495-1.124 2.495-2.507 0-1.382-1.12-2.506-2.495-2.506z" transform="translate(17 9.043)"/>
                                    <path fill-rule="nonzero" d="M12.336-.459C5.272-.459-.457 5.297-.457 12.395c0 5.417 3.368 10.198 8.34 12.05l.614-.441-.03-1.374-.027-1.391-.006-.199c-.01-.384-.019-.753-.026-1.122l-.02-1.116-.02-.933-.003-.2v-.109c0-.11.005-.203.015-.298.07-.784.406-1.222 1.3-1.253h.19l.023.002.07.01c.514.037.82.23 1 .54.122.212.173.45.176.644v.029l.07 1.495.004.112.118 2.56.156 3.402.435.437.14.006.11.001.102-.002.42-.339c.144-.532.38-.835.742-.936.537-.148 1.149-.067 1.41.195.063.06.106.125.133.207l.024.087c-.004-.017-.007-.037-.007-.068l.571.444c5.59-1.46 9.561-6.555 9.561-12.44 0-7.098-5.728-12.854-12.792-12.854zm0 .918c6.56 0 11.88 5.345 11.88 11.936l-.002.182c-.078 5.206-3.502 9.715-8.363 11.224l-.113.034c-.07-.124-.156-.235-.258-.33-.52-.521-1.464-.646-2.287-.42l-.101.032c-.298.1-.545.268-.746.493l-.103-2.252-.118-2.557-.004-.112-.07-1.477.001-.016c-.006-.345-.087-.729-.3-1.096l-.055-.089c-.319-.49-.833-.812-1.54-.894l-.11-.01.034.005c-.054-.01-.107-.016-.163-.02l-.093-.002h-.043c-1.469 0-2.16.803-2.3 1.979l-.01.101c-.014.122-.02.245-.02.388l.004.405.02.858c.005.38.012.747.02 1.115l.028 1.24.006.203.017.941.02 1.008-.057-.025C3.275 21.414.457 17.17.457 12.395.457 5.804 5.776.46 12.337.46zM20.612 26.108c.099 0 .196.009.29.024 1.064.177 1.73.868 1.802 2.047l.005.155.001.203-.002.161-.012.384-.02.462-.044.835-.085 1.364-.066.96-.103 1.435-.13 1.699-.017.171c-.02.188-.049.397-.086.62-.108.642-.27 1.285-.5 1.889-.33.87-.773 1.59-1.354 2.102-2.146 1.896-4.035 2.44-7.996 1.797-1.919-.313-3.539-1.413-4.876-3.04-.552-.673-1.019-1.392-1.403-2.111-.108-.202-.203-.392-.285-.569l-.093-.203-.053-.122-.037-.092-.037-.109-.052-.166c-.065-.213-.13-.451-.19-.712-.246-1.072-.347-2.17-.218-3.21.214-1.719 1.04-3.05 2.603-3.779l.144-.064.36.843c-1.333.574-2.018 1.645-2.201 3.114-.114.917-.022 1.914.203 2.89.054.239.113.457.172.65l.07.219.055.13.045.102c.088.194.194.41.319.644.357.669.791 1.338 1.303 1.96 1.207 1.47 2.644 2.447 4.317 2.72l.203.031.394.058c3.018.419 4.565.023 6.223-1.31l.213-.174c.071-.06.142-.122.214-.186.455-.401.822-.998 1.104-1.74.206-.542.354-1.128.452-1.714.035-.206.06-.396.08-.566l.038-.462.052-.67.105-1.425.07-.975.08-1.198.063-1.063.033-.636.022-.524.009-.334.002-.197-.003-.15-.002-.04c-.046-.739-.383-1.09-1.041-1.199-.045-.007-.092-.011-.142-.011-.231 0-.502.078-.778.213-.074.036-.14.072-.198.106l-.102.062-.04.027-.034.023-.538-.741c.109-.08.286-.191.513-.302.39-.19.787-.306 1.179-.306z" transform="translate(17 9.043)"/>
                                    <path fill-rule="nonzero" d="M14.998 24.473l.008.035-.015-.117.003.048c-.026-.111-.076-.202-.148-.274-.26-.262-.873-.343-1.41-.195-.34.095-.568.368-.717.853l-.04.138-.022.082-.035.165-.014.073c-.012.068-.022.14-.031.213l-.02.179-.017.193-.008.135-.014.326-.018.602-.912.004-.078-1.682-.023-.448-.155-3.402-.124-2.672-.068-1.508c.002-.136-.027-.333-.112-.53l-.04-.083c-.164-.316-.445-.52-.92-.577l-.104-.01-.07-.01-.08-.003h-.032c-.936 0-1.302.41-1.392 1.168l-.01.086c-.004.038-.007.073-.009.11l-.005.115v.273l.014.728.008.314c.006.38.012.747.02 1.116l.028 1.228.007.202.015.876.029 1.328.038 1.512.004.011.025 1.29.033 1.993.057 4.444-.913.009-.028-2.41-.029-2.028-.033-1.991-.025-1.28-.004-.01-.027-1.066-.025-1.08-.021-1.054-.01-.587-.008-.253c-.01-.38-.019-.748-.026-1.116l-.02-1.114-.023-1.155v-.13l.004-.156c.002-.048.005-.093.009-.14l.007-.071c.108-1.196.762-2.032 2.186-2.077l.167-.002.094.002.081.007.05.007.1.01c.754.085 1.287.44 1.6.979l.047.086c.179.344.247.685.255.965v.07l.192 4.142.102 2.25c.202-.224.448-.391.746-.492l.1-.031c.824-.228 1.769-.103 2.3.43.193.194.328.438.39.709l.012.055.013.1.006.111.004.122.035-.028c.366-.28.838-.445 1.417-.466l.125-.003c1.039 0 1.706.472 2 1.234.128.333.17.67.161.975l-.01.157v1.981h-.912v-2.006l.006-.085c.015-.21-.008-.462-.096-.69-.16-.414-.492-.648-1.149-.648-.68 0-1.083.247-1.318.671-.085.154-.143.322-.176.49-.012.06-.02.11-.023.146l-.004.057-.913.005-.056-1.84c-.004-.032-.006-.06-.006-.09z" transform="translate(17 9.043)"/>
                                </g>
                            </g>
                        </g>
                    </g>
                </g>
            </g>
        </g>
    </g>
</svg>
