<?xml version="1.0" encoding="UTF-8"?>
<svg width="60" height="60" viewBox="0 0 60 60" version="1.1" xmlns="http://www.w3.org/2000/svg" xmlns:xlink="http://www.w3.org/1999/xlink">
  {" "}
  <g fill="none" fill-rule="evenodd">
    {" "}
    <circle cx="30" cy="30" r="30" fill="#FFF"></circle>{" "}
    <g style="fill:none">
      {" "}
      <path d="M0 0H31.752V31.752H0z" transform="translate(14 14)"></path>{" "}
      <path
        stroke="#8D6708"
        stroke-linejoin="round"
        stroke-width="1.323"
        d="M10.849 26.953c.263-.263.533-.688 1.376-.688h9.631c.764 0 4.97-4.216 5.504-4.815.514-.577 2.804-4.019 3.44-5.504-.4-.537-1.478-.984-2.752-.688-1.217.283-1.932 1.156-2.752 2.752l-3.154 1.637"
        transform="translate(14 14)"
      ></path>{" "}
      <path
        stroke="#8D6708"
        stroke-linejoin="round"
        stroke-width="1.323"
        d="M14.976 22.138h5.504c2.752 0 2.752-3.44 0-3.44h-3.635c-.573 0-1.648-1.376-2.557-1.376h-3.44c-.929 0-2.084.754-2.751 1.376L5.345 21.45"
        transform="translate(14 14)"
      ></path>{" "}
      <path
        stroke="#8D6708"
        stroke-linejoin="round"
        stroke-width="1.323"
        d="M8.785 31.769L12.225 28.329 3.969 20.074.529 23.514zM3.969 23.514L5.345 24.889"
        transform="translate(14 14)"
      ></path>{" "}
      <path
        stroke="#8D6708"
        stroke-width="1.323"
        d="M25.984 16.634L24.608 15.258 22.544 15.258 20.48 13.882 19.104 13.882 17.728 13.194 16.352 14.57 14.288 14.57 12.225 15.946 12.225 17.322M13.632 7.385c1.808 1.05 2.033 3.745 2.033 3.745s-2.582 1.022-4.39-.028c-1.808-1.05-3.866-4.787-3.866-4.787s4.415.02 6.223 1.07zM18.818 10.87c-1.677-1.727-1.468-4.753-.496-5.957 2.598-3.22 6.16-2.279 8.983-4.102 1.476 2.547.68 6.675-1.75 9.209-1.634 1.706-3.859 1.478-4.983 1.218M17.728 13.882c.57-5.162 4.566-7.102 7.232-9.384"
        transform="translate(14 14)"
      ></path>{" "}
    </g>{" "}
  </g>
</svg>
