<svg xmlns="http://www.w3.org/2000/svg" width="60" height="62" viewBox="0 0 60 62">
    <g fill="none" fill-rule="evenodd">
        <g>
            <g>
                <g>
                    <g>
                        <g transform="translate(-991 -547) translate(0 176) translate(275 329.928) translate(691 42) translate(25)">
                            <ellipse cx="30" cy="30.145" fill="#FFF" rx="30" ry="30.145"/>
                            <g fill="#8D6708">
                                <path fill-rule="nonzero" d="M21.5 5.555C12.68 5.555 5.53 12.74 5.53 21.604s7.15 16.048 15.972 16.048c8.82 0 15.97-7.184 15.97-16.048 0-8.864-7.15-16.049-15.97-16.049zm0 1.235c8.143 0 14.743 6.632 14.743 14.814s-6.6 14.814-14.742 14.814c-8.144 0-14.744-6.632-14.744-14.814S13.357 6.79 21.501 6.79zM22.319 0L22.319 4.321 20.886 4.321 20.886 0z" transform="translate(9 9.043)"/>
                                <path fill-rule="nonzero" d="M6.718 5.904L9.551 8.751 8.683 9.624 5.85 6.777zM4.3 20.987L4.3 22.427 0 22.427 0 20.987zM8.709 33.609L9.577 34.482 6.744 37.329 5.875 36.456zM22.319 38.887L22.319 43.208 20.886 43.208 20.886 38.887zM34.317 33.584L37.149 36.431 36.28 37.304 33.448 34.457zM43 20.987L43 22.427 38.7 22.427 38.7 20.987zM36.254 5.879L37.123 6.751 34.292 9.598 33.423 8.725z" transform="translate(9 9.043)"/>
                                <path d="M25.186 24.69L27.643 24.69 27.643 22.221 25.186 22.221zM15.971 18.518L18.429 18.518 18.429 16.049 15.971 16.049zM19.043 18.518L21.5 18.518 21.5 16.049 19.043 16.049zM15.971 21.604L18.429 21.604 18.429 19.135 15.971 19.135zM19.043 21.604L21.5 21.604 21.5 19.135 19.043 19.135zM22.114 21.604L24.571 21.604 24.571 19.135 22.114 19.135zM15.971 24.69L18.429 24.69 18.429 22.221 15.971 22.221zM19.043 24.69L21.5 24.69 21.5 22.221 19.043 22.221zM22.114 24.69L24.571 24.69 24.571 22.221 22.114 22.221zM15.971 27.776L18.429 27.776 18.429 25.307 15.971 25.307zM19.043 27.776L21.5 27.776 21.5 25.307 19.043 25.307zM22.114 27.776L24.571 27.776 24.571 25.307 22.114 25.307zM25.186 27.776L27.643 27.776 27.643 25.307 25.186 25.307zM26.22 20.99L28.129 21.604 28.871 19.267 28.447 19.131 26.547 18.518 26.409 18.943 25.8 20.853zM23.633 17.9L25.402 17.155 25.8 16.987 24.888 14.814 22.728 15.728 22.891 16.125zM29.725 16.666L30.714 14.572 30.333 14.391 29.014 13.76 28.632 13.58 27.824 15.291 27.643 15.674 28.025 15.856z" transform="translate(9 9.043)"/>
                            </g>
                        </g>
                    </g>
                </g>
            </g>
        </g>
    </g>
</svg>
