<svg xmlns="http://www.w3.org/2000/svg" viewBox="0 0 21 18" width="16" height="16" id="filters_datalayout_rows" class="">
<path xmlns="http://www.w3.org/2000/svg" d="M2.5 13.5c1.1045695 0 2 .8954305 2 2s-.8954305 2-2 2-2-.8954305-2-2 .8954305-2 2-2zm18 1.5v1H6.76557434v-1H20.5zm-18-8c1.1045695 0 2 .8954305 2 2s-.8954305 2-2 2-2-.8954305-2-2 .8954305-2 2-2zm18 1.5v1H6.76557434v-1H20.5zm-18-8c1.1045695 0 2 .8954305 2 2s-.8954305 2-2 2-2-.8954305-2-2 .8954305-2 2-2zm18 1.5v1H6.76557434V2H20.5z"></path>
</svg>